<?xml version="1.0" encoding="utf-8"?>
<!-- Generator: Adobe Illustrator 16.1.0, SVG Export Plug-In . SVG Version: 6.00 Build 0)  -->
<!DOCTYPE svg PUBLIC "-//W3C//DTD SVG 1.1//EN" "http://www.w3.org/Graphics/SVG/1.1/DTD/svg11.dtd">
<svg version="1.1" id="svg-editor-canvas" xmlns="http://www.w3.org/2000/svg" xmlns:xlink="http://www.w3.org/1999/xlink" x="0px"
	 y="0px" width="612.279px" height="200px" viewBox="0 0 612.279 200" enable-background="new 0 0 612.279 200"
	 xml:space="preserve">
<g id="logo__item--business">
	<g transform="translate(736.3203125 377.20769354013294) scale(2.3418159604735616 2.3418159604735616) rotate(0 0 0)">
		<text transform="matrix(0.427 0 0 0.427 -247.0982 -115.992)" fill="#216084" font-family="'ArialMT'" font-size="87.0341">AuthMaker</text>
	</g>
</g>
<g id="logo__item--logo_0">
	<g transform="translate(589.3461538461538 300.5) scale(0.9230769230769231 0.9230769230769231) rotate(0 0 0)">
		<g>
			<path fill="#216084" d="M-554.326-244.61c-3.483-4.878-7.2-9.639-10.917-14.402c-1.975-2.554-4.065-4.993-6.155-7.549
				c-3.137-3.832-6.505-7.549-9.873-11.149c-2.322-2.671-4.761-5.226-7.2-7.781c-2.555-2.671-4.995-5.343-7.549-7.897
				c-2.207-2.207-4.53-4.298-6.737-6.505c-1.626-1.626-3.251-3.251-4.994-4.878c-2.207,0-4.53-0.115-6.736-0.348
				c-2.207-0.232-4.53-0.464-6.737-0.929c-1.625-0.349-3.251-0.698-4.993-1.046c0,8.246,0.232,11.498,1.044,19.744
				c0-1.627,0.117,1.626,0.232,0c1.163,0.812,2.439,1.626,3.602,2.439c2.554,1.858,5.11,3.716,7.664,5.575
				c2.904,2.207,5.924,4.414,8.828,6.736c2.09,1.626,4.297,3.252,6.271,4.995c2.324,1.858,4.646,3.832,6.969,5.69
				c2.439,1.975,4.877,4.066,7.2,6.156c2.554,2.207,5.11,4.529,7.666,6.853c3.019,2.787,6.039,5.69,9.058,8.595
				c3.949,3.948,7.782,8.129,11.615,12.194c9.756,11.034,18.699,22.996,25.551,36.12c0.232-0.348,0.812-1.046,1.044-1.393
				c0.698-0.929,1.395-1.742,2.092-2.671C-533.769-213.252-543.408-229.395-554.326-244.61z"/>
			<path fill="#4B5C69" d="M-538.879-186.306c-11.73-16.376-25.435-31.242-40.185-44.947c-6.968-6.504-14.402-12.659-22.183-18.349
				c-6.735-5.11-14.053-9.524-21.137-14.054c0.464,2.439,0.929,4.995,1.51,7.434c1.858,6.736,3.251,13.473,5.574,20.092
				c1.625,4.646,3.368,9.176,5.343,13.705c2.09,4.646,4.414,9.291,6.852,13.82c2.207,3.833,4.761,7.549,7.317,11.151
				c1.626,2.322,3.368,4.645,5.226,6.851c3.601,4.181,7.434,8.13,11.615,11.73c2.787,2.323,5.458,4.645,8.361,6.737
				c3.253,2.09,6.388,4.529,10.105,5.343c2.787-1.046,5.226-2.904,7.665-4.531c0.349-0.232,1.161-0.812,1.51-1.044
				c4.529-3.137,8.827-6.62,12.659-10.569c0.349-0.349,1.046-1.161,1.393-1.51C-537.718-184.796-538.53-185.842-538.879-186.306z"/>
			<path fill="#0099D9" d="M-524.012-305.583c-4.761-0.814-9.524-1.859-14.285-3.253c-4.298-1.393-8.712-2.788-12.892-4.645
				c-2.323-1.046-4.645-2.323-6.969-3.485c-1.277-0.464-2.554-0.812-3.717,0c-6.155,3.136-12.311,6.505-19.046,8.13
				c-0.349,0.697-0.697,1.393-0.93,2.207c1.859,2.904,4.066,5.458,6.156,8.13c1.742,2.438,3.484,4.877,5.227,7.2
				c2.322,3.252,4.646,6.504,6.736,9.756c2.323,3.6,4.762,7.085,6.969,10.802c2.671,4.412,5.458,8.711,7.897,13.24
				c7.317,13.124,13.82,26.828,18.93,40.998c2.092,5.575,3.485,11.382,5.11,17.073c1.975-3.02,3.949-5.923,5.808-8.944
				c0.348-0.58,1.044-1.741,1.393-2.439c2.207-4.065,4.297-8.246,6.156-12.427c0.464-1.161,0.929-2.205,1.394-3.368
				c0.812-1.974,1.626-3.948,2.322-5.922c1.161-3.137,2.206-6.388,3.136-9.64c1.627-5.343,3.02-10.801,4.181-16.26
				c0.464-2.439,1.046-4.995,1.51-7.434c0.814-4.065,1.278-8.013,1.858-12.078c0.117-1.278,0.349-2.439,0.464-3.6
				c0.233-1.858,0.464-3.717,0.581-5.575c0.232-2.555,0.349-5.11,0.464-7.549c0.116-3.6,0.232-7.201,0.697-10.802
				C-504.385-304.19-514.257-303.842-524.012-305.583z"/>
		</g>
	</g>
</g>
<g id="logo__item--tagline_1">
	<g transform="translate(789.5 413.5) scale(1.6514124048312855 1.6514124048312855) rotate(0 0 0)">

			<text transform="matrix(0.6055 0 0 0.6055 -345.2046 -168.886)" fill="#216084" font-family="'ArialMT'" font-size="34.5235" letter-spacing="1">Making Auth Simple</text>
	</g>
</g>
</svg>
